<svg width="180" height="180" viewBox="0 0 180 180" xmlns="http://www.w3.org/2000/svg" role="img">
  <title>Opsvera Apple Touch Icon</title>
  
  <!-- Apple icon background -->
  <rect width="180" height="180" fill="#0F172A"/>

  <g transform="translate(30, 30)">
    <!-- Hex body -->
    <polygon points="60,11 103,36 103,86 60,111 17,86 17,36" fill="#2563EB"/>

    <!-- Inner hex ring -->
    <polygon points="60,25 90,42 90,79 60,96 30,79 30,42" fill="none" stroke="#60A5FA" stroke-width="2" opacity="0.6"/>

    <!-- Node dots -->
    <circle cx="60"  cy="11"  r="5.5" fill="#93C5FD"/>
    <circle cx="103" cy="36"  r="5.5" fill="#93C5FD"/>
    <circle cx="103" cy="86"  r="5.5" fill="#93C5FD"/>
    <circle cx="60"  cy="111" r="5.5" fill="#93C5FD"/>
    <circle cx="17"  cy="86"  r="5.5" fill="#93C5FD"/>
    <circle cx="17"  cy="36"  r="5.5" fill="#93C5FD"/>

    <!-- Connector lines -->
    <line x1="60" y1="61" x2="60"  y2="25"  stroke="#60A5FA" stroke-width="1.5" opacity="0.4"/>
    <line x1="60" y1="61" x2="90"  y2="42"  stroke="#60A5FA" stroke-width="1.5" opacity="0.4"/>
    <line x1="60" y1="61" x2="90"  y2="79"  stroke="#60A5FA" stroke-width="1.5" opacity="0.4"/>
    <line x1="60" y1="61" x2="60"  y2="96"  stroke="#60A5FA" stroke-width="1.5" opacity="0.4"/>
    <line x1="60" y1="61" x2="30"  y2="79"  stroke="#60A5FA" stroke-width="1.5" opacity="0.4"/>
    <line x1="60" y1="61" x2="30"  y2="42"  stroke="#60A5FA" stroke-width="1.5" opacity="0.4"/>

    <circle cx="60" cy="61" r="3.5" fill="#BFDBFE" opacity="0.9"/>
    
    <text x="60" y="61" dominant-baseline="central" text-anchor="middle" font-family="Inter, system-ui, sans-serif" font-size="52" font-weight="800" fill="#FFFFFF" letter-spacing="-1">O</text>
  </g>
</svg>
